<svg xmlns="http://www.w3.org/2000/svg" viewBox="0 0 472.24 42.14"><defs><style>.cls-1{fill:#6b21a8;}</style></defs><g id="Layer_2" data-name="Layer 2"><g id="Layer_1-2" data-name="Layer 1"><path class="cls-1" d="M3,21.83l-.63-1,1.29-1.64.64,1Zm5.09,4.39-4.43-7,1-.65,4.43,7ZM6.29,27.34,5.7,26.4l1.86-1.18.59.94ZM9,25.64l-.6-.94,1.68-1.06.59.94Z" transform="translate(-2.33 -1.85)"/><path class="cls-1" d="M9.06,18l-.59-1L9.82,15.4l.6,1ZM14,22.61,9.82,15.4l1.06-.61L15,22Zm-1.81,1-.55-1,1.91-1.09.55,1Zm2.77-1.59-.56-1,1.72-1,.55,1Z" transform="translate(-2.33 -1.85)"/><path class="cls-1" d="M20.49,19.3c-1.72.8-3.17-.08-4.36-2.62s-1-4.33.74-5.13,3.18.11,4.4,2.73S22.2,18.5,20.49,19.3Zm-.46-1c1-.44,1-1.62.11-3.51s-1.86-2.73-2.81-2.29-1,1.66-.06,3.63S19.08,18.77,20,18.32Zm-1-2.05a.83.83,0,0,1-.67.05.87.87,0,0,1-.49-.47.82.82,0,0,1-.05-.68.84.84,0,0,1,.47-.49.9.9,0,0,1,1.22,1.1A.83.83,0,0,1,19.07,16.27Z" transform="translate(-2.33 -1.85)"/><path class="cls-1" d="M22.52,11.3l-.35-1.13,1.67-1.25.36,1.15Zm3.78,5.57-2.46-8L25,8.56l2.46,7.94Zm-2,.61L24,16.42l2.1-.65.33,1.06Zm3-.94L27,15.48l1.89-.59L29.25,16Z" transform="translate(-2.33 -1.85)"/><path class="cls-1" d="M30.12,9.22,30,8.05l1.88-.92L32,8.33Zm.6,6.41-.12-1.11,2.19-.24.12,1.11Zm2.07-.23-.92-8.27L33.08,7,34,15.26Zm1.1-.12-.13-1.11,2-.22.13,1.11Z" transform="translate(-2.33 -1.85)"/><path class="cls-1" d="M39.77,15.45Q37,15.14,37.4,11c.32-2.88,1.41-4.21,3.29-4S43.36,8.69,43,11.56,41.65,15.65,39.77,15.45Zm.11-1.07c1,.11,1.69-.87,1.92-3S41.63,8.13,40.58,8s-1.69.9-1.93,3.06S38.84,14.26,39.88,14.38Zm.25-2.25a.88.88,0,0,1-.61-.31.9.9,0,1,1,1.58-.47.88.88,0,0,1-.31.61A.87.87,0,0,1,40.13,12.13Z" transform="translate(-2.33 -1.85)"/><path class="cls-1" d="M46.19,16.87Q43.51,16,44.84,12c.92-2.74,2.27-3.81,4.07-3.21s2.23,2.27,1.31,5S48,17.47,46.19,16.87Zm.34-1c1,.34,1.83-.49,2.5-2.47s.53-3.26-.47-3.6-1.84.53-2.53,2.59S45.53,15.52,46.53,15.85Zm.72-2.14a.9.9,0,0,1-.53-.44.84.84,0,0,1,0-.68.81.81,0,0,1,.43-.52.84.84,0,0,1,.68,0,.86.86,0,0,1,.53.43.84.84,0,0,1,0,.68.83.83,0,0,1-.43.53A.88.88,0,0,1,47.25,13.71Z" transform="translate(-2.33 -1.85)"/><path class="cls-1" d="M50.15,18.28l.51-1,2,1-.52,1Zm1.84,1,3.88-7.36,1.08.57-3.88,7.36Zm1,.51.52-1,1.76.92-.52,1Zm.29-7.12.55-1.05,2.07.3L55.31,13Z" transform="translate(-2.33 -1.85)"/><path class="cls-1" d="M56.15,21.57l.6-.94,1.86,1.19-.6.93Zm1.76,1.12,4.48-7,1,.66-4.49,7Zm.93.59.6-.93,1.66,1.06-.6.94Zm.88-7.07.64-1,2,.47-.65,1Z" transform="translate(-2.33 -1.85)"/><path class="cls-1" d="M62,25.37l.63-.91,1.81,1.25-.63.92Zm1.71,1.19,4.74-6.84,1,.7L64.7,27.25Zm.91.63.63-.92,1.63,1.13-.64.92Zm1.14-7,.67-1,2,.54-.68,1Z" transform="translate(-2.33 -1.85)"/><path class="cls-1" d="M69.73,30.92c-1.55-1.08-1.52-2.78.09-5.08s3.26-3,4.81-1.93,1.49,2.81-.16,5.17S71.28,32,69.73,30.92Zm.61-.88q1.3.9,3.1-1.67c1.24-1.78,1.43-3,.57-3.58s-1.92,0-3.16,1.76S69.48,29.43,70.34,30Zm1.3-1.86a.88.88,0,0,1-.38-.56.85.85,0,0,1,.16-.66A.9.9,0,0,1,73,27.3a.82.82,0,0,1-.17.66.84.84,0,0,1-.56.39A.87.87,0,0,1,71.64,28.18Z" transform="translate(-2.33 -1.85)"/><path class="cls-1" d="M75.55,34.89q-2.37-1.56,0-5.08c1.59-2.42,3.17-3.1,4.75-2.06s1.58,2.76,0,5.18S77.13,35.93,75.55,34.89Zm.59-.9q1.32.87,3-1.75c1.19-1.82,1.35-3,.47-3.59s-1.92,0-3.11,1.85S75.26,33.41,76.14,34Zm1.24-1.89a.85.85,0,0,1-.39-.55.84.84,0,0,1,.14-.66.82.82,0,0,1,.56-.4.94.94,0,0,1,1.06.7.82.82,0,0,1-.15.66.87.87,0,0,1-.55.4A.85.85,0,0,1,77.38,32.1Z" transform="translate(-2.33 -1.85)"/><path class="cls-1" d="M81.84,38.76c-1.64-.92-1.78-2.61-.4-5.07S84.38,30.38,86,31.3s1.77,2.65.35,5.17S83.49,39.69,81.84,38.76Zm.53-.94c.92.52,1.89-.14,2.92-2s1.13-3.1.21-3.62-1.91.17-3,2.07S81.45,37.3,82.37,37.82Zm1.11-2a.89.89,0,0,1-.44-.52,1,1,0,0,1,.63-1.12.88.88,0,0,1,1,1.3.87.87,0,0,1-.53.44A.86.86,0,0,1,83.48,35.85Z" transform="translate(-2.33 -1.85)"/><path class="cls-1" d="M86.59,41.13,87,40.08l2.06.79-.39,1Zm2,.74,2.95-7.78,1.14.43L89.68,42.3ZM89,35.15,89.4,34l2.09.05-.43,1.12Zm.59,7.11.39-1,1.85.71-.39,1Z" transform="translate(-2.33 -1.85)"/><path class="cls-1" d="M97.46,44c-1.9-.05-2.8-1.49-2.72-4.3s1.06-4.31,3-4.25,2.79,1.52,2.72,4.41S99.34,44,97.46,44Zm0-1.08c1.06,0,1.61-1,1.67-3.1s-.44-3.27-1.49-3.3S96.05,37.56,96,39.73,96.43,42.88,97.48,42.91Zm.07-2.26a.87.87,0,0,1-.63-.26.84.84,0,0,1-.23-.64.91.91,0,0,1,.26-.64.88.88,0,0,1,.64-.22.91.91,0,0,1,.64.26.86.86,0,0,1,.22.64.84.84,0,0,1-.9.86Z" transform="translate(-2.33 -1.85)"/><path class="cls-1" d="M101.68,37l-.49-1.08,1.51-1.45.49,1.1Zm4.45,5-3.43-7.58,1.11-.5,3.43,7.58Zm-1.9.86-.46-1,2-.91.46,1Zm2.9-1.31-.46-1,1.81-.82.46,1Z" transform="translate(-2.33 -1.85)"/><path class="cls-1" d="M107.7,34l-.7-1,1.16-1.73.72,1Zm5.41,4-5-6.68,1-.73,5,6.69Zm-1.67,1.24-.67-.89L112.54,37l.67.89ZM114,37.3l-.66-.9,1.59-1.18.66.9Z" transform="translate(-2.33 -1.85)"/><path class="cls-1" d="M119.34,33q-2.11,1.89-4.93-1.24c-1.93-2.16-2.2-3.86-.79-5.13s3.08-.82,5,1.34S120.74,31.73,119.34,33Zm-.72-.8q1.17-1.06-.93-3.4c-1.45-1.61-2.56-2.07-3.35-1.36s-.45,1.86,1,3.48S117.83,32.89,118.62,32.19ZM117.1,30.5a.84.84,0,0,1-.63.25.89.89,0,0,1-.61-.31.86.86,0,0,1-.24-.64.85.85,0,0,1,.31-.6.87.87,0,0,1,.64-.25.88.88,0,0,1,.6.31.87.87,0,0,1,.25.64A.84.84,0,0,1,117.1,30.5Z" transform="translate(-2.33 -1.85)"/><path class="cls-1" d="M124.51,28.15c-1.36,1.31-3,1-5-1.08s-2.32-3.79-1-5.1,3-.91,5,1.17S125.88,26.84,124.51,28.15Zm-.74-.78c.76-.73.41-1.85-1-3.36s-2.64-2-3.4-1.26-.39,1.88,1.11,3.45S123,28.1,123.77,27.37Zm-1.57-1.63a.84.84,0,0,1-1.24,0,.86.86,0,0,1-.27-.63,1,1,0,0,1,.92-.88.91.91,0,0,1,.62.3.82.82,0,0,1,.26.62A.84.84,0,0,1,122.2,25.74Z" transform="translate(-2.33 -1.85)"/><path class="cls-1" d="M129.58,23.32q-2.07,1.93-5-1.15c-2-2.11-2.27-3.81-.89-5.1s3.05-.88,5,1.23S131,22,129.58,23.32Zm-.73-.79c.77-.72.44-1.85-1-3.37s-2.61-2-3.38-1.3-.41,1.87,1.07,3.46S128.08,23.25,128.85,22.53Zm-1.55-1.65a.84.84,0,0,1-.63.25.82.82,0,0,1-.61-.29.88.88,0,0,1-.26-.64,1,1,0,0,1,.93-.87,1,1,0,0,1,.87.93A.89.89,0,0,1,127.3,20.88Z" transform="translate(-2.33 -1.85)"/><path class="cls-1" d="M128.7,15.22l-.75-.91,1.06-1.8.77.93Zm5.63,3.69L129,12.51l.94-.77,5.32,6.4Zm-1.61,1.34-.71-.86,1.7-1.41.71.86Zm2.46-2-.72-.86L136,16.09l.71.85Z" transform="translate(-2.33 -1.85)"/><path class="cls-1" d="M134.62,10.47l-.63-1,1.28-1.65.65,1Zm5.12,4.37-4.47-7,1-.65,4.47,7ZM138,16l-.6-.94,1.86-1.18.6.94Zm2.69-1.71-.6-.94,1.67-1.06.6.94Z" transform="translate(-2.33 -1.85)"/><path class="cls-1" d="M146,11.79q-2.67,1-4.09-3t1.22-5q2.67-.94,4.12,3.13T146,11.79Zm-.36-1c1-.35,1.14-1.51.43-3.48s-1.59-2.9-2.58-2.54-1.13,1.55-.4,3.6S144.68,11.13,145.67,10.77Zm-.76-2.13a.84.84,0,0,1-.68,0,.82.82,0,0,1-.44-.52.84.84,0,0,1,0-.68.85.85,0,0,1,.52-.44A.84.84,0,0,1,145,7a.85.85,0,0,1,.44.52.89.89,0,0,1,0,.68A.85.85,0,0,1,144.91,8.64Z" transform="translate(-2.33 -1.85)"/><path class="cls-1" d="M152.37,10.38c-1.88.18-3-1.12-3.24-3.92s.51-4.41,2.39-4.6,3,1.16,3.26,4S154.25,10.19,152.37,10.38Zm-.1-1.08c1-.1,1.47-1.2,1.26-3.28s-.85-3.19-1.9-3.08-1.47,1.23-1.25,3.39S151.22,9.41,152.27,9.3ZM152,7.05a.83.83,0,0,1-1-.78.82.82,0,0,1,.18-.66.86.86,0,0,1,.61-.31.92.92,0,0,1,.66.18.89.89,0,0,1,.3.61.88.88,0,0,1-.18.66A.84.84,0,0,1,152,7.05Z" transform="translate(-2.33 -1.85)"/><path class="cls-1" d="M156.46,10l.12-1.1,2.19.23-.12,1.11Zm.8-6.38.12-1.18,2-.49-.12,1.2Zm1.27,6.61L159.41,2l1.22.13-.89,8.28Zm1.1.11.11-1.1,2,.21-.11,1.1Z" transform="translate(-2.33 -1.85)"/><path class="cls-1" d="M163.14,10.92l.28-1.08,2.13.56-.28,1.08Zm1.74-6.19.3-1.15,2.09-.18L167,4.57Zm.27,6.72,2.12-8,1.18.31-2.12,8.05Zm1.07.28.28-1.08,1.92.51-.28,1.07Z" transform="translate(-2.33 -1.85)"/><path class="cls-1" d="M172,13.75q-2.65-1-1.19-4.94c1-2.71,2.39-3.73,4.17-3.08s2.15,2.35,1.15,5.06S173.81,14.41,172,13.75Zm.38-1q1.47.55,2.57-2.39t-.35-3.6q-1.48-.55-2.62,2.5C171.3,11.21,171.43,12.38,172.42,12.74Zm.78-2.12a.88.88,0,0,1-.51-.45.84.84,0,0,1,0-.68.92.92,0,0,1,.45-.51.85.85,0,0,1,.68,0,.89.89,0,0,1,.52.44.91.91,0,0,1,0,.69.9.9,0,0,1-.44.51A.87.87,0,0,1,173.2,10.62Z" transform="translate(-2.33 -1.85)"/><path class="cls-1" d="M178.44,16.36c-1.73-.76-2-2.42-.91-5s2.6-3.59,4.34-2.84,2,2.46.86,5.11S180.17,17.12,178.44,16.36Zm.43-1q1.45.65,2.71-2.24t-.15-3.62q-1.44-.63-2.75,2.35T178.87,15.37Zm.91-2.07a.83.83,0,0,1-.49-.48.9.9,0,0,1,0-.68.87.87,0,0,1,.48-.48.81.81,0,0,1,.68,0,.89.89,0,0,1,.49.48.86.86,0,0,1,0,.68.82.82,0,0,1-.47.48A.81.81,0,0,1,179.78,13.3Z" transform="translate(-2.33 -1.85)"/><path class="cls-1" d="M184.81,19.25c-1.72-.79-2-2.47-.81-5s2.68-3.54,4.4-2.75,2,2.51.75,5.13S186.52,20,184.81,19.25Zm.45-1c1,.44,1.87-.29,2.75-2.19s.89-3.17-.07-3.62-1.89.32-2.8,2.3S184.3,17.83,185.26,18.27Zm1-2.05a.91.91,0,0,1,.06-1.65.91.91,0,0,1,.68,0,.83.83,0,0,1,.47.49,1,1,0,0,1-.53,1.15A.86.86,0,0,1,186.21,16.22Z" transform="translate(-2.33 -1.85)"/><path class="cls-1" d="M188.93,21l.46-1,2,.9-.46,1Zm1.91.85,3.39-7.59,1.12.5L192,22.38Zm.83-6.67.48-1.08,2.08.16-.49,1.1Zm.17,7.12.46-1,1.8.81-.45,1Z" transform="translate(-2.33 -1.85)"/><path class="cls-1" d="M195.3,23.86l.43-1,2,.86-.43,1Zm1.92.81L200.45,17l1.13.47-3.23,7.67Zm.69-6.7.46-1.09,2.08.12L200,18.11Zm.33,7.13.43-1,1.83.77-.44,1Z" transform="translate(-2.33 -1.85)"/><path class="cls-1" d="M201.76,26.56l.41-1,2.05.81-.41,1Zm1.94.76,3.05-7.74,1.14.45-3,7.74Zm.53-6.71.43-1.1,2.09.07-.44,1.12Zm.5,7.12.41-1,1.84.73-.41,1Z" transform="translate(-2.33 -1.85)"/><path class="cls-1" d="M210.59,30.07q-2.67-1-1.21-4.94c1-2.71,2.38-3.74,4.15-3.09s2.17,2.33,1.17,5S212.36,30.72,210.59,30.07Zm.37-1q1.48.54,2.57-2.41t-.37-3.6q-1.49-.54-2.6,2.51C209.84,27.53,210,28.69,211,29.06Zm.78-2.13a.81.81,0,0,1-.51-.44.84.84,0,0,1,0-.68.86.86,0,0,1,.44-.52.89.89,0,0,1,.68,0,.87.87,0,0,1,.52.45.84.84,0,0,1,0,.68.87.87,0,0,1-.45.52A.84.84,0,0,1,211.74,26.93Z" transform="translate(-2.33 -1.85)"/><path class="cls-1" d="M217.19,32.4c-1.79-.61-2.23-2.24-1.32-4.91s2.29-3.8,4.08-3.19,2.22,2.28,1.29,5S219,33,217.19,32.4Zm.35-1c1,.34,1.84-.48,2.51-2.46s.55-3.26-.45-3.6-1.85.52-2.55,2.58S216.54,31,217.54,31.38Zm.73-2.14a.87.87,0,0,1-.53-.44.87.87,0,0,1,1.09-1.22.81.81,0,0,1,.53.43,1,1,0,0,1-.41,1.2A.8.8,0,0,1,218.27,29.24Z" transform="translate(-2.33 -1.85)"/><path class="cls-1" d="M223.83,34.57c-1.8-.56-2.28-2.19-1.44-4.87s2.21-3.85,4-3.28,2.27,2.23,1.4,5S225.63,35.14,223.83,34.57Zm.33-1c1,.31,1.82-.53,2.45-2.52s.47-3.27-.53-3.59-1.84.56-2.49,2.64S223.15,33.23,224.16,33.55Zm.67-2.16a.83.83,0,0,1-.57-1.1.84.84,0,0,1,.42-.54.88.88,0,0,1,.68,0,.84.84,0,0,1,.54.42,1,1,0,0,1-.38,1.22A.86.86,0,0,1,224.83,31.39Z" transform="translate(-2.33 -1.85)"/><path class="cls-1" d="M228.13,35.78l.31-1.06,2.12.61-.31,1.07Zm1.92-6.14.34-1.13,2.08-.12-.34,1.15Zm.08,6.73,2.34-8,1.17.34-2.34,8Zm1.06.31.31-1.07,1.9.56-.31,1.07Z" transform="translate(-2.33 -1.85)"/><path class="cls-1" d="M237.25,38.5q-2.75-.73-1.65-4.81c.75-2.79,2-3.94,3.86-3.45s2.37,2.12,1.62,4.92S239.08,39,237.25,38.5Zm.28-1c1,.27,1.8-.6,2.34-2.63s.33-3.28-.69-3.55-1.81.64-2.37,2.74S236.51,37.19,237.53,37.46Zm.58-2.19a.87.87,0,0,1-.55-.39.88.88,0,0,1,1-1.3.84.84,0,0,1,.55.39.87.87,0,0,1,.07.68.86.86,0,0,1-.4.55A.83.83,0,0,1,238.11,35.27Z" transform="translate(-2.33 -1.85)"/><path class="cls-1" d="M244.27,40.23q-2.76-.61-1.85-4.73c.62-2.83,1.86-4,3.7-3.62s2.46,2,1.83,4.84S246.12,40.64,244.27,40.23Zm.24-1.06c1,.23,1.77-.67,2.22-2.72s.19-3.29-.84-3.52-1.78.72-2.25,2.84S243.48,39,244.51,39.17ZM245,37a.84.84,0,0,1-.57-.38.81.81,0,0,1-.1-.67.86.86,0,0,1,.37-.57.88.88,0,0,1,.68-.1.82.82,0,0,1,.66,1,.88.88,0,0,1-.37.57A.89.89,0,0,1,245,37Z" transform="translate(-2.33 -1.85)"/><path class="cls-1" d="M251.49,41.6c-1.86-.29-2.58-1.83-2.15-4.6s1.6-4.14,3.47-3.85,2.58,1.86,2.13,4.72S253.36,41.89,251.49,41.6Zm.17-1.07c1,.17,1.72-.79,2-2.86s0-3.3-1.06-3.46-1.73.83-2.06,3S250.62,40.37,251.66,40.53ZM252,38.3a.9.9,0,0,1-.4-1.6.89.89,0,0,1,.67-.14.83.83,0,0,1,.59.34,1,1,0,0,1-.2,1.26A.86.86,0,0,1,252,38.3Z" transform="translate(-2.33 -1.85)"/><path class="cls-1" d="M256.42,42.15l.07-1.11,2.2.15-.07,1.11Zm.55-6.41.08-1.18,2-.57-.08,1.2Zm1.53,6.55.56-8.3,1.22.08-.56,8.3Zm1.1.07.08-1.11,2,.14-.07,1.11Z" transform="translate(-2.33 -1.85)"/><path class="cls-1" d="M266.52,42.55q-2.83.12-3-4.1T266.16,34q2.83-.12,3,4.21T266.52,42.55Zm0-1.08c1.06,0,1.54-1.11,1.45-3.2s-.66-3.24-1.72-3.19-1.53,1.15-1.44,3.32S265.42,41.51,266.47,41.47Zm-.09-2.26a.86.86,0,0,1-.65-.22.83.83,0,0,1-.27-.62.85.85,0,0,1,.22-.65.88.88,0,0,1,1.54.57.83.83,0,0,1-.84.92Z" transform="translate(-2.33 -1.85)"/><path class="cls-1" d="M270.69,35.69l-.2-1.17,1.82-1,.21,1.19Zm1,6.36-.19-1.1,2.17-.38.19,1.1Zm2.06-.36-1.43-8.2,1.2-.21,1.43,8.2Zm1.08-.19-.19-1.1,1.95-.34.19,1.1Z" transform="translate(-2.33 -1.85)"/><path class="cls-1" d="M281.73,39.85c-1.8.59-3.13-.46-4-3.13s-.44-4.42,1.36-5,3.14.49,4,3.24S283.53,39.26,281.73,39.85Zm-.34-1c1-.33,1.18-1.49.53-3.48s-1.51-2.93-2.51-2.61-1.17,1.53-.49,3.59S280.39,39.15,281.39,38.83Zm-.7-2.15a.83.83,0,0,1-1.1-.57.8.8,0,0,1,0-.68.89.89,0,0,1,.53-.43.84.84,0,0,1,.68,0,.89.89,0,0,1,.43.53.88.88,0,0,1,0,.68A.92.92,0,0,1,280.69,36.68Z" transform="translate(-2.33 -1.85)"/><path class="cls-1" d="M283.93,32.1,283.45,31,285,29.58l.49,1.1Zm4.39,5.09L285,29.58l1.12-.49,3.35,7.61Zm-1.91.84L286,37l2-.88.45,1Zm2.92-1.28-.45-1,1.81-.8.45,1Z" transform="translate(-2.33 -1.85)"/><path class="cls-1" d="M290.24,29.24l-.53-1.06,1.44-1.51.54,1.08Zm4.64,4.87-3.73-7.44,1.09-.55L296,33.56ZM293,35l-.5-1,2-1,.5,1Zm2.85-1.42-.5-1,1.78-.89.49,1Z" transform="translate(-2.33 -1.85)"/><path class="cls-1" d="M301.56,30.83c-1.68.86-3.17.05-4.46-2.45s-1.14-4.29.54-5.16,3.18,0,4.5,2.56S303.24,30,301.56,30.83Zm-.5-1q1.41-.74,0-3.52c-1-1.93-2-2.65-2.9-2.17s-.91,1.69.09,3.62S300.13,30.35,301.06,29.87Zm-1-2a.9.9,0,0,1-1.26-1.06.89.89,0,0,1,.45-.51.87.87,0,0,1,.68-.07.84.84,0,0,1,.5.45.87.87,0,0,1,.08.68A.86.86,0,0,1,300,27.86Z" transform="translate(-2.33 -1.85)"/><path class="cls-1" d="M307.79,27.67q-2.55,1.24-4.39-2.55c-1.27-2.59-1-4.31.65-5.14s3.18.06,4.44,2.66S309.49,26.85,307.79,27.67Zm-.47-1c.95-.47,1-1.64.05-3.52s-1.9-2.7-2.85-2.24-.95,1.67,0,3.63S306.37,27.17,307.32,26.71Zm-1-2a.82.82,0,0,1-.68.06.89.89,0,0,1-.5-.46.91.91,0,0,1-.06-.68.88.88,0,0,1,.47-.5.91.91,0,0,1,.68-.06,1,1,0,0,1,.56,1.14A.85.85,0,0,1,306.33,24.67Z" transform="translate(-2.33 -1.85)"/><path class="cls-1" d="M314.08,24.83c-1.75.72-3.16-.23-4.22-2.83s-.76-4.37,1-5.09,3.17.27,4.26,2.95S315.83,24.12,314.08,24.83Zm-.41-1q1.47-.6.28-3.51t-2.69-2.42q-1.47.6-.24,3.61T313.67,23.84Zm-.85-2.1a.85.85,0,0,1-.68,0,.86.86,0,0,1-.47-.5.85.85,0,0,1,0-.68.89.89,0,0,1,.5-.47.92.92,0,0,1,.69,0,1,1,0,0,1,.48,1.19A.88.88,0,0,1,312.82,21.74Z" transform="translate(-2.33 -1.85)"/><path class="cls-1" d="M320.46,22.65q-2.74.74-3.83-3.35c-.74-2.79-.19-4.43,1.63-4.92s3.11.67,3.85,3.47S322.28,22.17,320.46,22.65Zm-.28-1c1-.27,1.26-1.42.72-3.44s-1.34-3-2.36-2.75-1.25,1.46-.7,3.56S319.16,21.88,320.18,21.61Zm-.58-2.19a.84.84,0,0,1-.68-.07.86.86,0,0,1-.4-.55.87.87,0,0,1,.08-.68.86.86,0,0,1,.55-.4.92.92,0,0,1,.68.07.86.86,0,0,1,.39.56.81.81,0,0,1-.07.67A.8.8,0,0,1,319.6,19.42Z" transform="translate(-2.33 -1.85)"/><path class="cls-1" d="M326.93,21.61q-2.83.13-3-4.08t2.63-4.46q2.84-.13,3,4.2C329.7,20.08,328.82,21.52,326.93,21.61Zm-.05-1.08c1.05,0,1.53-1.11,1.43-3.21s-.67-3.23-1.73-3.18-1.53,1.16-1.43,3.33S325.83,20.58,326.88,20.53Zm-.11-2.26a.8.8,0,0,1-.64-.21.88.88,0,0,1,.56-1.54.87.87,0,0,1,.65.21.84.84,0,0,1,.27.63.87.87,0,0,1-.21.64A.84.84,0,0,1,326.77,18.27Z" transform="translate(-2.33 -1.85)"/><path class="cls-1" d="M333.37,22.2q-2.78-.6-1.89-4.73c.61-2.82,1.84-4,3.69-3.64s2.47,2,1.86,4.84S335.22,22.59,333.37,22.2Zm.22-1.06c1,.22,1.77-.69,2.21-2.74s.17-3.29-.86-3.51-1.77.72-2.23,2.85S332.56,20.92,333.59,21.14Zm.48-2.21a.83.83,0,0,1-.57-.37,1,1,0,0,1,.27-1.25.89.89,0,0,1,.67-.1.86.86,0,0,1,.57.37.83.83,0,0,1,.1.68.82.82,0,0,1-1,.67Z" transform="translate(-2.33 -1.85)"/><path class="cls-1" d="M337.42,23.15l.43-1,2,.84-.42,1Zm1.93.79,3.17-7.69,1.13.47-3.17,7.69Zm.63-6.69.45-1.1,2.09.1-.46,1.12Zm.39,7.11.42-1,1.83.75-.42,1Z" transform="translate(-2.33 -1.85)"/><path class="cls-1" d="M343.68,25.87l.52-1,1.95,1-.53,1Zm1.84,1,3.91-7.34,1.07.57-3.9,7.35Zm1,.52.53-1,1.75.93-.53,1Zm.31-7.12.56-1.05,2.07.31-.57,1.06Z" transform="translate(-2.33 -1.85)"/><path class="cls-1" d="M352,30.56q-2.47-1.41-.39-5.07c1.43-2.52,3-3.31,4.61-2.37s1.75,2.65.33,5.17S353.59,31.49,352,30.56Zm.53-.94q1.38.78,2.92-1.95c1.08-1.89,1.15-3.1.24-3.62s-1.92.17-3,2.06S351.56,29.1,352.48,29.62Zm1.12-2a.86.86,0,0,1-.44-.52.92.92,0,0,1,.1-.68.88.88,0,0,1,.53-.43.85.85,0,0,1,.67.1.82.82,0,0,1,.33,1.2.84.84,0,0,1-.52.43A.81.81,0,0,1,353.6,27.65Z" transform="translate(-2.33 -1.85)"/><path class="cls-1" d="M358.22,34q-2.52-1.3-.58-5.05t4.51-2.55c1.68.87,1.85,2.59.53,5.16S359.9,34.87,358.22,34Zm.5-1q1.39.74,2.84-2.06t.09-3.62q-1.39-.72-2.9,2.17T358.72,33Zm1-2a.82.82,0,0,1-.37-1.18.85.85,0,0,1,.51-.46.89.89,0,0,1,.67.08A.85.85,0,0,1,361,30a.87.87,0,0,1-.08.68.86.86,0,0,1-.51.45A.83.83,0,0,1,359.75,31Z" transform="translate(-2.33 -1.85)"/><path class="cls-1" d="M365.19,37.15q-2.65-1-1.19-4.94t4.17-3.08c1.77.66,2.16,2.34,1.15,5.05S367,37.81,365.19,37.15Zm.38-1c1,.36,1.85-.43,2.57-2.4s.64-3.24-.35-3.6-1.86.47-2.61,2.5S364.58,35.77,365.57,36.14Zm.78-2.12a.91.91,0,0,1-.51-.45.89.89,0,0,1,0-.68.87.87,0,0,1,.45-.52.89.89,0,0,1,.68,0,.82.82,0,0,1,.51.45.81.81,0,0,1,0,.68A.9.9,0,0,1,367,34,.87.87,0,0,1,366.35,34Z" transform="translate(-2.33 -1.85)"/><path class="cls-1" d="M373,39.19c-1.87-.3-2.59-1.83-2.15-4.61s1.61-4.14,3.47-3.84,2.58,1.86,2.13,4.72S374.87,39.48,373,39.19Zm.16-1.07c1.05.17,1.73-.79,2.05-2.86s0-3.3-1.05-3.46-1.73.83-2.07,3S372.13,38,373.17,38.12Zm.35-2.23a.91.91,0,0,1-.59-.34.9.9,0,0,1-.14-.67.86.86,0,0,1,.34-.59.9.9,0,0,1,.67-.14.83.83,0,0,1,.59.34.88.88,0,0,1-.87,1.4Z" transform="translate(-2.33 -1.85)"/><path class="cls-1" d="M378.29,39.65V38.54h2.21v1.11Zm.13-6.43V32l2-.7v1.21Zm2,6.43V31.33h1.22v8.32Zm1.1,0V38.54h2v1.12Z" transform="translate(-2.33 -1.85)"/><path class="cls-1" d="M385.31,33.09l-.12-1.18,1.89-.9.12,1.21Zm.53,6.41-.11-1.1,2.19-.23.11,1.11Zm2.07-.21L387.08,31l1.21-.12.84,8.28Zm1.1-.11-.11-1.11,2-.2L391,39Z" transform="translate(-2.33 -1.85)"/><path class="cls-1" d="M392.2,32.31l-.2-1.17,1.83-1,.2,1.2Zm.92,6.36-.18-1.09,2.18-.36.18,1.1Zm2.06-.33-1.35-8.22,1.2-.19,1.35,8.21Zm1.09-.18-.18-1.1,2-.32.18,1.1Z" transform="translate(-2.33 -1.85)"/><path class="cls-1" d="M399,31.15,398.73,30l1.8-1.07.23,1.18Zm1.12,6.33-.21-1.09L402,36l.21,1.09Zm2.05-.4-1.6-8.16,1.2-.24,1.59,8.17Zm1.08-.21L403,35.78l1.94-.38.21,1.09Z" transform="translate(-2.33 -1.85)"/><path class="cls-1" d="M409.46,35.73c-1.85.38-3.06-.82-3.61-3.57s.07-4.44,1.92-4.81,3.06.85,3.64,3.69S411.31,35.36,409.46,35.73Zm-.21-1.06c1-.2,1.34-1.34.93-3.39S409,28.19,408,28.4s-1.33,1.38-.9,3.51S408.21,34.88,409.25,34.67Zm-.45-2.21a.85.85,0,0,1-.67-.12.82.82,0,0,1-.36-.57.81.81,0,0,1,.11-.67.89.89,0,0,1,.57-.37.92.92,0,0,1,.68.11.9.9,0,0,1,.36.58.89.89,0,0,1-.11.67A.87.87,0,0,1,408.8,32.46Z" transform="translate(-2.33 -1.85)"/><path class="cls-1" d="M412.77,28.39l-.22-1.17,1.81-1,.22,1.19Zm1.05,6.35-.2-1.1,2.17-.4.2,1.09Zm2.05-.38-1.51-8.19,1.2-.22,1.51,8.18Zm1.09-.21-.21-1.09,1.95-.36.2,1.09Z" transform="translate(-2.33 -1.85)"/><path class="cls-1" d="M419.8,27.11l-.19-1.17,1.83-1,.19,1.19Zm.9,6.37-.18-1.1L422.7,32l.18,1.1Zm2.06-.33-1.32-8.21,1.2-.2L424,33Zm1.09-.17-.18-1.1,2-.32.17,1.1Z" transform="translate(-2.33 -1.85)"/><path class="cls-1" d="M430.11,32.18c-1.87.25-3-1-3.38-3.8S427.09,24,429,23.7s3,1.05,3.39,3.92S432,31.92,430.11,32.18ZM430,31.11q1.56-.21,1.14-3.33c-.29-2.15-1-3.15-2-3s-1.42,1.29-1.12,3.44S428.92,31.25,430,31.11Zm-.31-2.24a.85.85,0,0,1-1-.75.88.88,0,0,1,.16-.67.83.83,0,0,1,.59-.32.84.84,0,0,1,.67.15.85.85,0,0,1,.32.6.83.83,0,0,1-.15.66A.9.9,0,0,1,429.66,28.87Z" transform="translate(-2.33 -1.85)"/><path class="cls-1" d="M433.91,25.08l-.13-1.18,1.87-.92.14,1.2Zm.62,6.4-.13-1.1,2.19-.26.13,1.11Zm2.07-.24-1-8.26,1.21-.14.95,8.27Zm1.1-.12L437.57,30l2-.22.12,1.1Z" transform="translate(-2.33 -1.85)"/><path class="cls-1" d="M444,30.58q-2.82.27-3.23-3.93t2.4-4.59q2.82-.27,3.24,4C446.68,28.9,445.87,30.39,444,30.58Zm-.1-1.08c1-.1,1.47-1.19,1.26-3.28s-.84-3.19-1.89-3.08-1.47,1.23-1.25,3.39S442.84,29.61,443.89,29.5Zm-.22-2.25a.83.83,0,0,1-1-.79.84.84,0,0,1,.18-.66.87.87,0,0,1,.6-.3.89.89,0,0,1,.66.18.84.84,0,0,1,.3.61.87.87,0,0,1-.17.66A.84.84,0,0,1,443.67,27.25Z" transform="translate(-2.33 -1.85)"/><path class="cls-1" d="M448,23.62l-.1-1.18,1.91-.87.1,1.21Zm.43,6.42-.1-1.11,2.2-.18.09,1.1Zm2.07-.18-.69-8.29,1.21-.1.7,8.29Zm1.1-.09-.09-1.11,2-.16.1,1.11Z" transform="translate(-2.33 -1.85)"/><path class="cls-1" d="M455.08,23,455,21.86l1.92-.85.08,1.2Zm.36,6.42-.08-1.11,2.2-.16.08,1.11Zm2.08-.15-.61-8.3,1.21-.09.62,8.3Zm1.1-.08-.08-1.11,2-.15.08,1.11Z" transform="translate(-2.33 -1.85)"/><path class="cls-1" d="M462.14,22.53l-.08-1.18,1.92-.84.08,1.21Zm.31,6.42-.08-1.11,2.2-.14.07,1.11Zm2.08-.13L464,20.51l1.21-.08.55,8.3Zm1.1-.08-.08-1.11,2-.13.07,1.11Z" transform="translate(-2.33 -1.85)"/><path class="cls-1" d="M472,28.46c-1.89.11-2.92-1.23-3.09-4s.68-4.39,2.57-4.5,2.92,1.27,3.09,4.16S473.85,28.35,472,28.46Zm-.07-1.08c1.05-.06,1.52-1.14,1.39-3.23s-.72-3.22-1.77-3.15-1.52,1.18-1.39,3.34S470.85,27.45,471.9,27.38Zm-.13-2.25a.88.88,0,0,1-.65-.21.85.85,0,0,1-.29-.62.9.9,0,0,1,.21-.65.88.88,0,0,1,.62-.28.83.83,0,0,1,.93.83.87.87,0,0,1-.2.64A.85.85,0,0,1,471.77,25.13Z" transform="translate(-2.33 -1.85)"/></g></g></svg>